<svg width="31" height="31" viewBox="0 0 31 31" fill="none" xmlns="http://www.w3.org/2000/svg">
<path d="M10.4486 17.6544C12.2129 17.6544 13.6269 19.0821 13.6269 20.8589V25.1245C13.6269 26.8888 12.2129 28.3278 10.4486 28.3278H6.21927C4.46748 28.3278 3.04102 26.8888 3.04102 25.1245V20.8589C3.04102 19.0821 4.46748 17.6544 6.21927 17.6544H10.4486ZM24.8885 17.6544C26.6403 17.6544 28.0668 19.0821 28.0668 20.8589V25.1245C28.0668 26.8888 26.6403 28.3278 24.8885 28.3278H20.6592C18.8949 28.3278 17.4809 26.8888 17.4809 25.1245V20.8589C17.4809 19.0821 18.8949 17.6544 20.6592 17.6544H24.8885ZM10.4486 3.30255C12.2129 3.30255 13.6269 4.74153 13.6269 6.50708V10.7727C13.6269 12.5495 12.2129 13.976 10.4486 13.976H6.21927C4.46748 13.976 3.04102 12.5495 3.04102 10.7727V6.50708C3.04102 4.74153 4.46748 3.30255 6.21927 3.30255H10.4486ZM24.8885 3.30255C26.6403 3.30255 28.0668 4.74153 28.0668 6.50708V10.7727C28.0668 12.5495 26.6403 13.976 24.8885 13.976H20.6592C18.8949 13.976 17.4809 12.5495 17.4809 10.7727V6.50708C17.4809 4.74153 18.8949 3.30255 20.6592 3.30255H24.8885Z" fill="#EFF2F4"/>
</svg>
