<svg width="31" height="31" viewBox="0 0 31 31" fill="none" xmlns="http://www.w3.org/2000/svg">
<path d="M15.5791 3.24103C22.6864 3.24103 28.0669 9.06823 28.0669 15.7351C28.0669 23.4671 21.7604 28.2667 15.5541 28.2667C13.502 28.2667 11.2246 27.7153 9.39777 26.6376C8.75962 26.2491 8.22157 25.9609 7.53336 26.1864L5.00577 26.9383C4.36762 27.1388 3.79203 26.6376 3.97972 25.9609L4.81808 23.1538C4.95572 22.7653 4.9307 22.3517 4.73049 22.0259C3.65439 20.0459 3.04126 17.878 3.04126 15.7726C3.04126 9.18101 8.30916 3.24103 15.5791 3.24103ZM21.2975 14.1811C20.4091 14.1811 19.6958 14.8954 19.6958 15.7852C19.6958 16.6624 20.4091 17.3892 21.2975 17.3892C22.1859 17.3892 22.8991 16.6624 22.8991 15.7852C22.8991 14.8954 22.1859 14.1811 21.2975 14.1811ZM15.5291 14.1811C14.6532 14.1686 13.9274 14.8954 13.9274 15.7726C13.9274 16.6624 14.6406 17.3767 15.5291 17.3892C16.4175 17.3892 17.1307 16.6624 17.1307 15.7852C17.1307 14.8954 16.4175 14.1811 15.5291 14.1811ZM9.76064 14.1811C8.87223 14.1811 8.159 14.8954 8.159 15.7852C8.159 16.6624 8.88475 17.3892 9.76064 17.3892C10.6491 17.3767 11.3623 16.6624 11.3623 15.7852C11.3623 14.8954 10.6491 14.1811 9.76064 14.1811Z" fill="#EFF2F4"/>
</svg>
