<svg width="31" height="31" viewBox="0 0 31 31" fill="none" xmlns="http://www.w3.org/2000/svg">
<path d="M11.9687 26.4833V22.6572C11.9687 21.6806 12.7663 20.8888 13.7501 20.8888H17.3465C17.819 20.8888 18.2721 21.0751 18.6062 21.4068C18.9402 21.7384 19.1279 22.1882 19.1279 22.6572V26.4833C19.1249 26.8894 19.2853 27.2798 19.5735 27.568C19.8617 27.8561 20.2538 28.0182 20.6628 28.0182H23.1165C24.2624 28.0212 25.3624 27.5713 26.1738 26.7679C26.9851 25.9646 27.4411 24.8737 27.4411 23.7361V12.8362C27.4411 11.9173 27.0308 11.0456 26.3207 10.4561L17.9739 3.83827C16.522 2.67795 14.4417 2.71541 13.0331 3.92725L4.87675 10.4561C4.13315 11.0282 3.68871 11.9025 3.66675 12.8362V23.725C3.66675 26.0961 5.60296 28.0182 7.9914 28.0182H10.389C11.2385 28.0182 11.929 27.3378 11.9351 26.4944L11.9687 26.4833Z" fill="white"/>
</svg>
