<svg width="31" height="31" viewBox="0 0 31 31" fill="none" xmlns="http://www.w3.org/2000/svg">
<path d="M14.9192 2.93335C18.0256 2.93335 20.5591 5.4234 20.5591 8.48904V14.4827H12.9204C12.373 14.4827 11.9402 14.9081 11.9402 15.4462C11.9402 15.9717 12.373 16.4097 12.9204 16.4097H20.5591V22.3908C20.5591 25.4564 18.0256 27.959 14.8938 27.959H8.69373C5.57462 27.959 3.04114 25.4689 3.04114 22.4033V8.50155C3.04114 5.4234 5.58735 2.93335 8.70646 2.93335H14.9192ZM23.7376 11.1295C24.113 10.7416 24.7261 10.7416 25.1015 11.117L28.7552 14.7582C28.9429 14.9459 29.043 15.1837 29.043 15.4464C29.043 15.6967 28.9429 15.9469 28.7552 16.1221L25.1015 19.7633C24.9138 19.951 24.6635 20.0511 24.4258 20.0511C24.1755 20.0511 23.9253 19.951 23.7376 19.7633C23.3622 19.388 23.3622 18.7748 23.7376 18.3994L25.7396 16.4099H20.5593V14.4829H25.7396L23.7376 12.4934C23.3622 12.118 23.3622 11.5049 23.7376 11.1295Z" fill="white"/>
</svg>
