<svg width="50" height="50" viewBox="0 0 50 50" fill="none" xmlns="http://www.w3.org/2000/svg">
<path d="M19.2708 45.8333L18.4375 39.1667C17.9861 38.9931 17.5608 38.7847 17.1615 38.5417C16.7622 38.2986 16.3715 38.0382 15.9896 37.7604L9.79167 40.3646L4.0625 30.4687L9.42708 26.4062C9.39236 26.1632 9.375 25.9288 9.375 25.7031V24.2969C9.375 24.0712 9.39236 23.8368 9.42708 23.5937L4.0625 19.5312L9.79167 9.63542L15.9896 12.2396C16.3715 11.9618 16.7708 11.7014 17.1875 11.4583C17.6042 11.2153 18.0208 11.0069 18.4375 10.8333L19.2708 4.16667H30.7292L31.5625 10.8333C32.0139 11.0069 32.4392 11.2153 32.8385 11.4583C33.2378 11.7014 33.6285 11.9618 34.0104 12.2396L40.2083 9.63542L45.9375 19.5312L40.5729 23.5937C40.6076 23.8368 40.625 24.0712 40.625 24.2969V25.7031C40.625 25.9288 40.5903 26.1632 40.5208 26.4062L45.8854 30.4687L40.1562 40.3646L34.0104 37.7604C33.6285 38.0382 33.2292 38.2986 32.8125 38.5417C32.3958 38.7847 31.9792 38.9931 31.5625 39.1667L30.7292 45.8333H19.2708ZM25.1042 32.2917C27.1181 32.2917 28.8368 31.5799 30.2604 30.1562C31.684 28.7326 32.3958 27.0139 32.3958 25C32.3958 22.9861 31.684 21.2674 30.2604 19.8437C28.8368 18.4201 27.1181 17.7083 25.1042 17.7083C23.0556 17.7083 21.3281 18.4201 19.9219 19.8437C18.5156 21.2674 17.8125 22.9861 17.8125 25C17.8125 27.0139 18.5156 28.7326 19.9219 30.1562C21.3281 31.5799 23.0556 32.2917 25.1042 32.2917Z" fill="#ECE6F0"/>
</svg>