<svg width="31" height="31" viewBox="0 0 31 31" fill="none" xmlns="http://www.w3.org/2000/svg">
<path d="M29.3197 9.43417L20.561 15.6904L29.3197 21.9467V9.43417Z" fill="#EFF2F4"/>
<path d="M18.0585 6.93167H4.29474C2.91264 6.93167 1.79224 8.05208 1.79224 9.43417V21.9467C1.79224 23.3288 2.91264 24.4492 4.29474 24.4492H18.0585C19.4406 24.4492 20.561 23.3288 20.561 21.9467V9.43417C20.561 8.05208 19.4406 6.93167 18.0585 6.93167Z" fill="#EFF2F4"/>
<path d="M29.3197 9.43417L20.561 15.6904L29.3197 21.9467V9.43417Z" stroke="#EFF2F4" stroke-linecap="round" stroke-linejoin="round"/>
<path d="M18.0585 6.93167H4.29474C2.91264 6.93167 1.79224 8.05208 1.79224 9.43417V21.9467C1.79224 23.3288 2.91264 24.4492 4.29474 24.4492H18.0585C19.4406 24.4492 20.561 23.3288 20.561 21.9467V9.43417C20.561 8.05208 19.4406 6.93167 18.0585 6.93167Z" stroke="#EFF2F4" stroke-linecap="round" stroke-linejoin="round"/>
</svg>
